<svg xmlns="http://www.w3.org/2000/svg" viewBox="0 0 142.6 19.89"><g id="Calque_2" data-name="Calque 2"><g id="Calque_1-2" data-name="Calque 1"><path d="M211.4,7.27a4.34,4.34,0,0,1-.68,2.56,3.76,3.76,0,0,1-1.87,1.36,8.18,8.18,0,0,1-2.72.42h-1.84v5.26H203V3.13h3.26a6.24,6.24,0,0,1,3.74,1A3.63,3.63,0,0,1,211.4,7.27Zm-1.4,0a3.19,3.19,0,0,0-.47-1.84,2.54,2.54,0,0,0-1.25-1,5,5,0,0,0-1.74-.28h-2.25V10.5h2.11a5.84,5.84,0,0,0,1.84-.27,2.36,2.36,0,0,0,1.28-1A3.43,3.43,0,0,0,210,7.3Z" transform="translate(-203.01 -1.16)"/><path d="M213.67,16.87v-1h1.71V7.42h-1.71v-1h2.66l.23,2.52a6,6,0,0,1,1.48-2,3.56,3.56,0,0,1,2.34-.72,4.07,4.07,0,0,1,.73.06l.69.15-.35,1.17a5.45,5.45,0,0,0-.62-.15,3.7,3.7,0,0,0-.6,0,3,3,0,0,0-2.16.86A6.21,6.21,0,0,0,216.62,11v4.88h2.16v1Zm6.79-7.2v-2l.08-1.25h1.26l-.14,3.3Z" transform="translate(-203.01 -1.16)"/><path d="M228.41,6.18a4.07,4.07,0,0,1,2.4.67,4,4,0,0,1,1.43,1.89,7.82,7.82,0,0,1,.48,2.88,7.62,7.62,0,0,1-.49,2.79,4.37,4.37,0,0,1-1.46,1.94,3.88,3.88,0,0,1-2.39.72,4,4,0,0,1-2.41-.69,4.09,4.09,0,0,1-1.45-1.91,7.7,7.7,0,0,1-.48-2.83,7.58,7.58,0,0,1,.49-2.84A4.2,4.2,0,0,1,226,6.87,4.09,4.09,0,0,1,228.41,6.18Zm0,1.09a2.6,2.6,0,0,0-2.25,1.07,5.7,5.7,0,0,0-.76,3.3,5.69,5.69,0,0,0,.75,3.25,2.84,2.84,0,0,0,4.46,0,5.72,5.72,0,0,0,.75-3.27,5.76,5.76,0,0,0-.75-3.28A2.52,2.52,0,0,0,228.41,7.27Z" transform="translate(-203.01 -1.16)"/><path d="M239.72,6.37v9.22a4.53,4.53,0,0,1-.78,2.7,5.53,5.53,0,0,1-2.22,1.77,12.89,12.89,0,0,1-3.46,1l-.21-1a11.68,11.68,0,0,0,2.77-.74,4.64,4.64,0,0,0,1.94-1.4,3.48,3.48,0,0,0,.72-2.26V7.45h-4.55V6.37Zm-1.43-4.75a1,1,0,0,1,.76.29,1,1,0,0,1,.29.7,1,1,0,0,1-1.05,1,.94.94,0,0,1-.73-.3,1,1,0,0,1-.27-.73,1,1,0,0,1,.27-.7A1,1,0,0,1,238.29,1.62Z" transform="translate(-203.01 -1.16)"/><path d="M243.87,12.12a4.8,4.8,0,0,0,.47,2.16,2.92,2.92,0,0,0,1.18,1.25,3.18,3.18,0,0,0,1.59.4,4.2,4.2,0,0,0,1.47-.24,6.3,6.3,0,0,0,1.36-.73l.65.93a5.91,5.91,0,0,1-1.65.87,5.43,5.43,0,0,1-1.78.31,4.46,4.46,0,0,1-2.49-.68,4.27,4.27,0,0,1-1.58-1.91,6.8,6.8,0,0,1-.55-2.85,6.65,6.65,0,0,1,.56-2.83,4.67,4.67,0,0,1,1.55-1.93A4,4,0,0,1,247,6.18a3.84,3.84,0,0,1,2.19.62,3.94,3.94,0,0,1,1.39,1.75,6.94,6.94,0,0,1,.49,2.71c0,.18,0,.34,0,.48s0,.27,0,.38ZM247,7.34a2.85,2.85,0,0,0-2.14.9,4.2,4.2,0,0,0-1,2.76h6A4.34,4.34,0,0,0,249,8.24,2.59,2.59,0,0,0,247,7.34Z" transform="translate(-203.01 -1.16)"/><path d="M260.78,16.37a4,4,0,0,1-1.26.52,5.87,5.87,0,0,1-1.37.18,3.48,3.48,0,0,1-2.48-.84,2.75,2.75,0,0,1-.89-2.11V7.41H252.3v-1h2.48V4L256,3.8V6.37h3.7l-.17,1H256v6.68a1.88,1.88,0,0,0,.49,1.4,2.31,2.31,0,0,0,1.67.5,4.32,4.32,0,0,0,1.11-.14,4.93,4.93,0,0,0,.95-.37Z" transform="translate(-203.01 -1.16)"/><path d="M280.55,16.87l-5.2-12.39a5.11,5.11,0,0,0,0,.66c0,.34,0,.75.05,1.23s0,1,.06,1.52,0,1.07,0,1.58v7.4h-1.26V3.13h1.83l5.34,12.47c0-.12,0-.43,0-.93s-.06-1.12-.09-1.85,0-1.51,0-2.33V3.13h1.26V16.87Z" transform="translate(-203.01 -1.16)"/><path d="M286.47,12.12a4.8,4.8,0,0,0,.47,2.16,2.92,2.92,0,0,0,1.18,1.25,3.18,3.18,0,0,0,1.59.4,4.2,4.2,0,0,0,1.47-.24,6.3,6.3,0,0,0,1.36-.73l.65.93a5.91,5.91,0,0,1-1.65.87,5.43,5.43,0,0,1-1.78.31,4.46,4.46,0,0,1-2.49-.68,4.27,4.27,0,0,1-1.58-1.91,6.8,6.8,0,0,1-.55-2.85,6.65,6.65,0,0,1,.56-2.83,4.67,4.67,0,0,1,1.55-1.93,4,4,0,0,1,2.32-.69,3.84,3.84,0,0,1,2.19.62,3.94,3.94,0,0,1,1.39,1.75,6.94,6.94,0,0,1,.49,2.71c0,.18,0,.34,0,.48s0,.27,0,.38Zm3.13-4.78a2.85,2.85,0,0,0-2.14.9,4.2,4.2,0,0,0-1,2.76h6a4.34,4.34,0,0,0-.83-2.76A2.59,2.59,0,0,0,289.6,7.34Zm1.73-6.18L292,2.32,288,4l-.42-.7Z" transform="translate(-203.01 -1.16)"/><path d="M303.64,6.18a2.3,2.3,0,0,1,.89.19,1.71,1.71,0,0,1,.78.81A4.23,4.23,0,0,1,305.63,9v7.83h-1.22V9.28a7.51,7.51,0,0,0-.13-1.62.68.68,0,0,0-.76-.5,2,2,0,0,0-1.07.33,3.38,3.38,0,0,0-1,1.1v8.28h-1.38V9.28A7.51,7.51,0,0,0,300,7.66a.68.68,0,0,0-.76-.5,2,2,0,0,0-1.08.33,3.47,3.47,0,0,0-1,1.1v8.28h-1.2V6.37h1L297,7.64a4.91,4.91,0,0,1,1-1,2.11,2.11,0,0,1,1.36-.43,2.54,2.54,0,0,1,1.16.28,1.81,1.81,0,0,1,.84,1.15,3.79,3.79,0,0,1,.94-1A2.25,2.25,0,0,1,303.64,6.18Z" transform="translate(-203.01 -1.16)"/><path d="M309.27,12.12a4.8,4.8,0,0,0,.47,2.16,2.92,2.92,0,0,0,1.18,1.25,3.18,3.18,0,0,0,1.59.4,4.2,4.2,0,0,0,1.47-.24,6.3,6.3,0,0,0,1.36-.73l.65.93a5.91,5.91,0,0,1-1.65.87,5.43,5.43,0,0,1-1.78.31,4.46,4.46,0,0,1-2.49-.68,4.27,4.27,0,0,1-1.58-1.91,6.8,6.8,0,0,1-.55-2.85,6.81,6.81,0,0,1,.55-2.83,4.77,4.77,0,0,1,1.56-1.93,4,4,0,0,1,2.32-.69,3.84,3.84,0,0,1,2.19.62A3.94,3.94,0,0,1,316,8.55a6.94,6.94,0,0,1,.49,2.71c0,.18,0,.34,0,.48s0,.27,0,.38Zm3.13-4.78a2.85,2.85,0,0,0-2.14.9,4.2,4.2,0,0,0-1,2.76h6a4.34,4.34,0,0,0-.83-2.76A2.59,2.59,0,0,0,312.4,7.34Zm1.73-6.18.64,1.16-4,1.65-.41-.7Z" transform="translate(-203.01 -1.16)"/><path d="M322.15,15.94a3.67,3.67,0,0,0,2.1-.52,1.56,1.56,0,0,0,.77-1.35,2.31,2.31,0,0,0-.17-.91,1.63,1.63,0,0,0-.71-.69,7,7,0,0,0-1.67-.57,13.84,13.84,0,0,1-2-.62,3.14,3.14,0,0,1-1.27-.89,2.23,2.23,0,0,1-.45-1.46,2.3,2.3,0,0,1,.49-1.49,3.1,3.1,0,0,1,1.36-.94,5.71,5.71,0,0,1,2-.32,6.29,6.29,0,0,1,2.14.33,6,6,0,0,1,1.54.8l-.58.92a6.08,6.08,0,0,0-1.29-.68,5.17,5.17,0,0,0-1.8-.27,3.25,3.25,0,0,0-1.95.44,1.33,1.33,0,0,0-.56,1.11,1.29,1.29,0,0,0,.27.85,2.17,2.17,0,0,0,.91.59,14.31,14.31,0,0,0,1.7.55,10.16,10.16,0,0,1,1.8.65,3.11,3.11,0,0,1,1.2,1,2.73,2.73,0,0,1,.43,1.58,2.46,2.46,0,0,1-.63,1.77,3.46,3.46,0,0,1-1.6,1,7,7,0,0,1-2,.3,6,6,0,0,1-2.35-.41,5.73,5.73,0,0,1-1.58-1l.77-.91a4.92,4.92,0,0,0,1.43.83A4.76,4.76,0,0,0,322.15,15.94Z" transform="translate(-203.01 -1.16)"/><path d="M333.36,6.37v9.42h3.05v1.08H328.8V15.79h3.32V7.45H328.9V6.37Zm-1.17-4.75a1,1,0,0,1,.76.29,1,1,0,0,1,.28.7,1,1,0,0,1-.28.73,1,1,0,0,1-.76.3,1,1,0,0,1-.74-.3,1,1,0,0,1-.27-.73,1,1,0,0,1,.27-.7A1,1,0,0,1,332.19,1.62Z" transform="translate(-203.01 -1.16)"/><path d="M341.35,15.94a3.67,3.67,0,0,0,2.1-.52,1.56,1.56,0,0,0,.77-1.35,2.31,2.31,0,0,0-.17-.91,1.63,1.63,0,0,0-.71-.69,7,7,0,0,0-1.67-.57,13.84,13.84,0,0,1-2-.62,3.14,3.14,0,0,1-1.27-.89A2.23,2.23,0,0,1,338,8.93a2.3,2.3,0,0,1,.49-1.49,3.1,3.1,0,0,1,1.36-.94,5.71,5.71,0,0,1,2-.32,6.29,6.29,0,0,1,2.14.33,6,6,0,0,1,1.54.8l-.58.92a6.08,6.08,0,0,0-1.29-.68,5.17,5.17,0,0,0-1.8-.27,3.25,3.25,0,0,0-1.95.44,1.33,1.33,0,0,0-.56,1.11,1.29,1.29,0,0,0,.27.85,2.17,2.17,0,0,0,.91.59,14.31,14.31,0,0,0,1.7.55,10.16,10.16,0,0,1,1.8.65,3.11,3.11,0,0,1,1.2,1,2.73,2.73,0,0,1,.43,1.58,2.46,2.46,0,0,1-.63,1.77,3.46,3.46,0,0,1-1.6,1,7,7,0,0,1-2,.3,6,6,0,0,1-2.35-.41,5.73,5.73,0,0,1-1.58-1l.77-.91a4.92,4.92,0,0,0,1.43.83A4.76,4.76,0,0,0,341.35,15.94Z" transform="translate(-203.01 -1.16)"/></g></g></svg>